<svg width="41" height="41" viewBox="0 0 41 41" fill="none" xmlns="http://www.w3.org/2000/svg">
<path d="M17.4069 20.4788L27.6268 8.83111C27.8292 8.60839 27.9851 8.33407 28.0824 8.02943C28.1797 7.72478 28.2157 7.39799 28.1878 7.0744C28.1598 6.75082 28.0685 6.43912 27.921 6.1635C27.7735 5.88787 27.5738 5.65572 27.3374 5.48504C27.0249 5.24837 26.6604 5.12328 26.2882 5.12502C26.0401 5.12818 25.7948 5.18564 25.5647 5.29444C25.3347 5.39901 25.1254 5.55756 24.9497 5.76035L13.3732 18.954C13.1956 19.1516 13.054 19.3893 12.9572 19.6529C12.8643 19.9222 12.8152 20.2095 12.8125 20.5C12.813 20.7839 12.8622 21.0647 12.9572 21.3259C13.0519 21.597 13.1935 21.8422 13.3732 22.046L24.9678 35.3032C25.3226 35.6696 25.779 35.8727 26.2521 35.875C26.4944 35.8766 26.7346 35.8212 26.9583 35.7121C27.182 35.603 27.3848 35.4423 27.5544 35.2396C27.7286 35.0453 27.8679 34.8122 27.9642 34.554C28.0605 34.2958 28.1118 34.0177 28.1151 33.736C28.1214 33.4502 28.0781 33.1659 27.9879 32.9002C27.8978 32.6345 27.7626 32.3929 27.5906 32.1901L17.4069 20.4788Z" fill="#E50A17"/>
</svg>
