<svg width="41" height="41" viewBox="0 0 41 41" fill="none" xmlns="http://www.w3.org/2000/svg">
<path d="M23.5931 20.4788L13.3732 8.83111C13.1708 8.60839 13.0149 8.33407 12.9176 8.02943C12.8203 7.72478 12.7843 7.39799 12.8122 7.0744C12.8402 6.75082 12.9315 6.43912 13.079 6.1635C13.2265 5.88787 13.4262 5.65572 13.6626 5.48504C13.9751 5.24837 14.3396 5.12328 14.7118 5.12502C14.9599 5.12818 15.2052 5.18564 15.4353 5.29444C15.6653 5.39901 15.8746 5.55756 16.0503 5.76035L27.6268 18.954C27.8044 19.1516 27.946 19.3893 28.0428 19.6529C28.1357 19.9222 28.1848 20.2095 28.1875 20.5C28.187 20.7839 28.1378 21.0647 28.0428 21.3259C27.9481 21.597 27.8065 21.8422 27.6268 22.046L16.0322 35.3032C15.6774 35.6696 15.221 35.8727 14.7479 35.875C14.5056 35.8766 14.2654 35.8212 14.0417 35.7121C13.818 35.603 13.6152 35.4423 13.4456 35.2396C13.2714 35.0453 13.1321 34.8122 13.0358 34.554C12.9395 34.2958 12.8882 34.0177 12.8849 33.736C12.8786 33.4502 12.9219 33.1659 13.0121 32.9002C13.1022 32.6345 13.2374 32.3929 13.4094 32.1901L23.5931 20.4788Z" fill="#E50A17"/>
</svg>
